<svg xmlns="http://www.w3.org/2000/svg" xmlns:xlink="http://www.w3.org/1999/xlink" width="80" zoomAndPan="magnify" viewBox="0 0 60 60" height="80" preserveAspectRatio="xMidYMid meet" version="1.0"><rect x="-6" width="72" fill="#ffffff" y="-6" height="72" fill-opacity="1"/><rect x="-6" width="72" fill="#ffffff" y="-6" height="72" fill-opacity="1"/><path fill="#000000" d="M 13.648438 26.183594 L 13.648438 26.320312 C 13.648438 26.386719 13.621094 26.421875 13.5625 26.421875 L 13.34375 26.421875 C 13.292969 26.421875 13.257812 26.386719 13.257812 26.328125 L 13.257812 26.195312 C 13.257812 25.695312 13.054688 25.46875 12.523438 25.46875 C 12.007812 25.46875 11.753906 25.730469 11.753906 26.226562 L 11.753906 27.585938 C 11.753906 28.085938 12.007812 28.347656 12.523438 28.347656 C 13.054688 28.347656 13.257812 28.117188 13.257812 27.621094 L 13.257812 27.453125 C 13.257812 27.390625 13.292969 27.359375 13.34375 27.359375 L 13.5625 27.359375 C 13.621094 27.359375 13.648438 27.390625 13.648438 27.460938 L 13.648438 27.628906 C 13.648438 28.347656 13.300781 28.691406 12.515625 28.691406 C 11.761719 28.691406 11.339844 28.296875 11.339844 27.578125 L 11.339844 26.253906 C 11.339844 25.542969 11.761719 25.148438 12.515625 25.148438 C 13.292969 25.121094 13.648438 25.46875 13.648438 26.183594 Z M 13.648438 26.183594 " fill-opacity="1" fill-rule="nonzero"/><path fill="#000000" d="M 14.332031 27.746094 L 14.332031 27.054688 C 14.332031 26.445312 14.714844 26.117188 15.421875 26.117188 C 16.132812 26.117188 16.496094 26.429688 16.496094 27.03125 L 16.496094 27.382812 C 16.496094 27.484375 16.445312 27.535156 16.34375 27.535156 L 14.738281 27.535156 L 14.738281 27.78125 C 14.738281 28.167969 14.96875 28.347656 15.441406 28.347656 C 15.863281 28.347656 16.074219 28.21875 16.074219 27.964844 L 16.074219 27.941406 C 16.074219 27.898438 16.09375 27.875 16.144531 27.875 L 16.394531 27.875 C 16.4375 27.875 16.464844 27.898438 16.464844 27.941406 L 16.464844 27.976562 C 16.464844 28.4375 16.132812 28.675781 15.441406 28.675781 C 14.714844 28.675781 14.332031 28.355469 14.332031 27.746094 Z M 14.738281 27.011719 L 14.738281 27.214844 L 16.101562 27.214844 L 16.101562 27.011719 C 16.101562 26.625 15.878906 26.4375 15.421875 26.4375 C 14.957031 26.4375 14.738281 26.625 14.738281 27.011719 Z M 14.738281 27.011719 " fill-opacity="1" fill-rule="nonzero"/><path fill="#000000" d="M 17.328125 28.5 L 17.328125 26.328125 C 17.328125 26.21875 17.394531 26.144531 17.511719 26.144531 L 17.53125 26.144531 C 17.640625 26.144531 17.707031 26.21875 17.707031 26.328125 L 17.707031 26.457031 C 17.859375 26.246094 18.113281 26.136719 18.441406 26.136719 C 19.042969 26.136719 19.414062 26.488281 19.414062 27.105469 L 19.414062 28.507812 C 19.414062 28.582031 19.363281 28.632812 19.289062 28.632812 L 19.121094 28.632812 C 19.050781 28.632812 19 28.582031 19 28.507812 L 19 27.105469 C 19 26.691406 18.78125 26.472656 18.367188 26.472656 C 17.953125 26.472656 17.734375 26.691406 17.734375 27.105469 L 17.734375 28.507812 C 17.734375 28.582031 17.683594 28.632812 17.613281 28.632812 L 17.445312 28.632812 C 17.378906 28.617188 17.328125 28.566406 17.328125 28.5 Z M 17.328125 28.5 " fill-opacity="1" fill-rule="nonzero"/><path fill="#000000" d="M 21.597656 28.675781 C 20.980469 28.675781 20.652344 28.40625 20.652344 27.898438 L 20.652344 26.589844 L 20.03125 26.589844 C 19.964844 26.589844 19.933594 26.546875 19.933594 26.488281 L 19.933594 26.347656 C 19.933594 26.285156 19.964844 26.246094 20.03125 26.246094 L 20.652344 26.246094 L 20.652344 25.601562 C 20.652344 25.511719 20.71875 25.441406 20.8125 25.441406 L 20.914062 25.441406 C 21.003906 25.441406 21.066406 25.511719 21.066406 25.601562 L 21.066406 26.246094 L 22.214844 26.246094 C 22.273438 26.246094 22.316406 26.285156 22.316406 26.347656 L 22.316406 26.480469 C 22.316406 26.539062 22.273438 26.582031 22.214844 26.582031 L 21.066406 26.582031 L 21.066406 27.898438 C 21.066406 28.195312 21.25 28.339844 21.597656 28.339844 C 21.9375 28.339844 22.113281 28.195312 22.113281 27.925781 L 22.113281 27.554688 C 22.113281 27.46875 22.15625 27.417969 22.25 27.417969 L 22.382812 27.417969 C 22.46875 27.417969 22.519531 27.460938 22.519531 27.554688 L 22.519531 27.925781 C 22.519531 28.414062 22.207031 28.675781 21.597656 28.675781 Z M 21.597656 28.675781 " fill-opacity="1" fill-rule="nonzero"/><path fill="#000000" d="M 23.027344 28.523438 L 23.027344 28.386719 C 23.027344 28.328125 23.070312 28.289062 23.128906 28.289062 L 23.578125 28.289062 L 23.578125 26.910156 L 23.144531 26.480469 C 23.078125 26.414062 23.070312 26.328125 23.136719 26.261719 L 23.195312 26.203125 C 23.265625 26.136719 23.347656 26.136719 23.417969 26.210938 L 23.761719 26.558594 C 23.890625 26.277344 24.167969 26.125 24.582031 26.125 C 25.167969 26.125 25.488281 26.40625 25.488281 26.929688 L 25.488281 27.121094 C 25.488281 27.214844 25.4375 27.265625 25.34375 27.265625 L 25.234375 27.265625 C 25.148438 27.265625 25.089844 27.214844 25.089844 27.121094 L 25.089844 26.929688 C 25.089844 26.617188 24.894531 26.457031 24.542969 26.457031 C 24.1875 26.457031 23.984375 26.625 23.984375 26.945312 L 23.984375 28.289062 L 24.601562 28.289062 C 24.660156 28.289062 24.703125 28.328125 24.703125 28.386719 L 24.703125 28.523438 C 24.703125 28.582031 24.660156 28.625 24.601562 28.625 L 23.121094 28.625 C 23.070312 28.617188 23.027344 28.582031 23.027344 28.523438 Z M 23.027344 28.523438 " fill-opacity="1" fill-rule="nonzero"/><path fill="#000000" d="M 26.089844 27.695312 L 26.089844 27.105469 C 26.089844 26.480469 26.488281 26.125 27.1875 26.125 C 27.890625 26.125 28.289062 26.480469 28.289062 27.105469 L 28.289062 27.695312 C 28.289062 28.320312 27.890625 28.675781 27.1875 28.675781 C 26.488281 28.675781 26.089844 28.320312 26.089844 27.695312 Z M 27.875 27.730469 L 27.875 27.0625 C 27.875 26.667969 27.628906 26.445312 27.1875 26.445312 C 26.738281 26.445312 26.503906 26.667969 26.503906 27.0625 L 26.503906 27.730469 C 26.503906 28.125 26.75 28.347656 27.1875 28.347656 C 27.636719 28.347656 27.875 28.125 27.875 27.730469 Z M 27.875 27.730469 " fill-opacity="1" fill-rule="nonzero"/><path fill="#000000" d="M 11.40625 34.601562 L 11.40625 34.464844 C 11.40625 34.40625 11.449219 34.363281 11.507812 34.363281 L 12.277344 34.363281 L 12.277344 32.59375 L 11.558594 32.59375 C 11.5 32.59375 11.457031 32.550781 11.457031 32.492188 L 11.457031 32.355469 C 11.457031 32.296875 11.5 32.253906 11.558594 32.253906 L 12.53125 32.253906 C 12.640625 32.253906 12.691406 32.296875 12.691406 32.40625 L 12.691406 34.363281 L 13.453125 34.363281 C 13.519531 34.363281 13.554688 34.40625 13.554688 34.464844 L 13.554688 34.601562 C 13.554688 34.660156 13.519531 34.703125 13.453125 34.703125 L 11.507812 34.703125 C 11.449219 34.703125 11.40625 34.660156 11.40625 34.601562 Z M 12.167969 31.65625 L 12.167969 31.425781 C 12.167969 31.308594 12.234375 31.242188 12.355469 31.242188 L 12.496094 31.242188 C 12.617188 31.242188 12.683594 31.308594 12.683594 31.425781 L 12.683594 31.65625 C 12.683594 31.773438 12.617188 31.839844 12.496094 31.839844 L 12.355469 31.839844 C 12.234375 31.839844 12.167969 31.773438 12.167969 31.65625 Z M 12.167969 31.65625 " fill-opacity="1" fill-rule="nonzero"/><path fill="#000000" d="M 14.382812 34.574219 L 14.382812 32.40625 C 14.382812 32.296875 14.449219 32.222656 14.570312 32.222656 L 14.585938 32.222656 C 14.695312 32.222656 14.765625 32.296875 14.765625 32.40625 L 14.765625 32.53125 C 14.917969 32.320312 15.171875 32.210938 15.5 32.210938 C 16.101562 32.210938 16.472656 32.566406 16.472656 33.183594 L 16.472656 34.585938 C 16.472656 34.660156 16.421875 34.710938 16.34375 34.710938 L 16.175781 34.710938 C 16.109375 34.710938 16.058594 34.660156 16.058594 34.585938 L 16.058594 33.183594 C 16.058594 32.769531 15.839844 32.550781 15.421875 32.550781 C 15.007812 32.550781 14.789062 32.769531 14.789062 33.183594 L 14.789062 34.585938 C 14.789062 34.660156 14.738281 34.710938 14.671875 34.710938 L 14.5 34.710938 C 14.433594 34.703125 14.382812 34.652344 14.382812 34.574219 Z M 14.382812 34.574219 " fill-opacity="1" fill-rule="nonzero"/><path fill="#000000" d="M 18.65625 34.753906 C 18.039062 34.753906 17.707031 34.484375 17.707031 33.976562 L 17.707031 32.667969 L 17.089844 32.667969 C 17.023438 32.667969 16.988281 32.625 16.988281 32.566406 L 16.988281 32.433594 C 16.988281 32.371094 17.023438 32.332031 17.089844 32.332031 L 17.707031 32.332031 L 17.707031 31.6875 C 17.707031 31.597656 17.773438 31.527344 17.867188 31.527344 L 17.96875 31.527344 C 18.0625 31.527344 18.121094 31.597656 18.121094 31.6875 L 18.121094 32.332031 L 19.273438 32.332031 C 19.332031 32.332031 19.375 32.371094 19.375 32.433594 L 19.375 32.566406 C 19.375 32.625 19.332031 32.667969 19.273438 32.667969 L 18.121094 32.667969 L 18.121094 33.984375 C 18.121094 34.28125 18.308594 34.425781 18.65625 34.425781 C 18.992188 34.425781 19.171875 34.28125 19.171875 34.011719 L 19.171875 33.640625 C 19.171875 33.554688 19.210938 33.503906 19.304688 33.503906 L 19.441406 33.503906 C 19.527344 33.503906 19.578125 33.546875 19.578125 33.640625 L 19.578125 34.011719 C 19.578125 34.5 19.261719 34.753906 18.65625 34.753906 Z M 18.65625 34.753906 " fill-opacity="1" fill-rule="nonzero"/><path fill="#000000" d="M 20.21875 33.832031 L 20.21875 33.140625 C 20.21875 32.53125 20.601562 32.203125 21.308594 32.203125 C 22.019531 32.203125 22.382812 32.515625 22.382812 33.117188 L 22.382812 33.46875 C 22.382812 33.570312 22.332031 33.621094 22.230469 33.621094 L 20.625 33.621094 L 20.625 33.867188 C 20.625 34.253906 20.855469 34.433594 21.328125 34.433594 C 21.75 34.433594 21.960938 34.304688 21.960938 34.050781 L 21.960938 34.027344 C 21.960938 33.984375 21.976562 33.960938 22.027344 33.960938 L 22.28125 33.960938 C 22.324219 33.960938 22.351562 33.984375 22.351562 34.027344 L 22.351562 34.0625 C 22.351562 34.523438 22.019531 34.761719 21.328125 34.761719 C 20.601562 34.753906 20.21875 34.433594 20.21875 33.832031 Z M 20.625 33.089844 L 20.625 33.292969 L 21.988281 33.292969 L 21.988281 33.089844 C 21.988281 32.703125 21.765625 32.515625 21.308594 32.515625 C 20.84375 32.523438 20.625 32.703125 20.625 33.089844 Z M 20.625 33.089844 " fill-opacity="1" fill-rule="nonzero"/><path fill="#000000" d="M 23.027344 34.601562 L 23.027344 34.464844 C 23.027344 34.40625 23.070312 34.363281 23.128906 34.363281 L 23.578125 34.363281 L 23.578125 32.988281 L 23.144531 32.558594 C 23.078125 32.492188 23.070312 32.40625 23.136719 32.339844 L 23.195312 32.28125 C 23.265625 32.210938 23.347656 32.210938 23.417969 32.289062 L 23.761719 32.632812 C 23.890625 32.355469 24.167969 32.203125 24.582031 32.203125 C 25.167969 32.203125 25.488281 32.484375 25.488281 33.007812 L 25.488281 33.199219 C 25.488281 33.292969 25.4375 33.34375 25.34375 33.34375 L 25.234375 33.34375 C 25.148438 33.34375 25.089844 33.292969 25.089844 33.199219 L 25.089844 33.007812 C 25.089844 32.695312 24.894531 32.53125 24.542969 32.53125 C 24.1875 32.53125 23.984375 32.703125 23.984375 33.023438 L 23.984375 34.363281 L 24.601562 34.363281 C 24.660156 34.363281 24.703125 34.40625 24.703125 34.464844 L 24.703125 34.601562 C 24.703125 34.660156 24.660156 34.703125 24.601562 34.703125 L 23.121094 34.703125 C 23.070312 34.703125 23.027344 34.660156 23.027344 34.601562 Z M 23.027344 34.601562 " fill-opacity="1" fill-rule="nonzero"/><path fill="#000000" d="M 26.15625 34.574219 L 26.15625 32.40625 C 26.15625 32.296875 26.222656 32.222656 26.34375 32.222656 L 26.359375 32.222656 C 26.46875 32.222656 26.539062 32.296875 26.539062 32.40625 L 26.539062 32.53125 C 26.6875 32.320312 26.941406 32.210938 27.273438 32.210938 C 27.875 32.210938 28.246094 32.566406 28.246094 33.183594 L 28.246094 34.585938 C 28.246094 34.660156 28.195312 34.710938 28.117188 34.710938 L 27.949219 34.710938 C 27.882812 34.710938 27.832031 34.660156 27.832031 34.585938 L 27.832031 33.183594 C 27.832031 32.769531 27.609375 32.550781 27.195312 32.550781 C 26.78125 32.550781 26.5625 32.769531 26.5625 33.183594 L 26.5625 34.585938 C 26.5625 34.660156 26.511719 34.710938 26.445312 34.710938 L 26.273438 34.710938 C 26.207031 34.703125 26.15625 34.652344 26.15625 34.574219 Z M 26.15625 34.574219 " fill-opacity="1" fill-rule="nonzero"/><path fill="#000000" d="M 29 34.050781 L 29 34.003906 C 29 33.527344 29.335938 33.292969 30.003906 33.292969 C 30.214844 33.292969 30.417969 33.316406 30.648438 33.367188 L 30.648438 32.988281 C 30.648438 32.675781 30.460938 32.53125 30.054688 32.53125 C 29.65625 32.53125 29.480469 32.652344 29.480469 32.914062 L 29.480469 32.945312 C 29.480469 32.996094 29.453125 33.023438 29.40625 33.023438 L 29.175781 33.023438 C 29.125 33.023438 29.089844 32.996094 29.089844 32.9375 L 29.089844 32.914062 C 29.089844 32.449219 29.429688 32.203125 30.046875 32.203125 C 30.714844 32.203125 31.054688 32.472656 31.054688 33.007812 L 31.054688 34.078125 L 31.375 34.398438 C 31.441406 34.464844 31.441406 34.558594 31.382812 34.617188 L 31.324219 34.675781 C 31.257812 34.746094 31.164062 34.738281 31.105469 34.667969 L 30.792969 34.355469 C 30.628906 34.601562 30.335938 34.753906 29.953125 34.753906 C 29.355469 34.753906 29 34.5 29 34.050781 Z M 29.996094 34.433594 C 30.375 34.433594 30.640625 34.238281 30.640625 33.960938 L 30.640625 33.648438 C 30.417969 33.589844 30.234375 33.570312 30.03125 33.570312 C 29.617188 33.570312 29.394531 33.714844 29.394531 33.984375 L 29.394531 34.035156 C 29.40625 34.296875 29.605469 34.433594 29.996094 34.433594 Z M 29.996094 34.433594 " fill-opacity="1" fill-rule="nonzero"/><path fill="#000000" d="M 32 33.800781 L 32 33.167969 C 32 32.558594 32.40625 32.203125 33.109375 32.203125 C 33.761719 32.203125 34.15625 32.492188 34.15625 33.015625 L 34.15625 33.097656 C 34.15625 33.148438 34.132812 33.183594 34.074219 33.183594 L 33.84375 33.183594 C 33.800781 33.183594 33.761719 33.148438 33.761719 33.097656 L 33.761719 33.03125 C 33.761719 32.710938 33.546875 32.53125 33.109375 32.53125 C 32.652344 32.53125 32.414062 32.746094 32.414062 33.148438 L 32.414062 33.816406 C 32.414062 34.214844 32.652344 34.433594 33.109375 34.433594 C 33.546875 34.433594 33.761719 34.253906 33.761719 33.933594 L 33.761719 33.851562 C 33.761719 33.800781 33.800781 33.765625 33.84375 33.765625 L 34.074219 33.765625 C 34.132812 33.765625 34.15625 33.808594 34.15625 33.859375 L 34.15625 33.960938 C 34.15625 34.484375 33.761719 34.769531 33.109375 34.769531 C 32.40625 34.753906 32 34.398438 32 33.800781 Z M 32 33.800781 " fill-opacity="1" fill-rule="nonzero"/><path fill="#000000" d="M 34.960938 34.601562 L 34.960938 34.464844 C 34.960938 34.40625 35.003906 34.363281 35.0625 34.363281 L 35.832031 34.363281 L 35.832031 32.59375 L 35.113281 32.59375 C 35.054688 32.59375 35.011719 32.550781 35.011719 32.492188 L 35.011719 32.355469 C 35.011719 32.296875 35.054688 32.253906 35.113281 32.253906 L 36.085938 32.253906 C 36.195312 32.253906 36.246094 32.296875 36.246094 32.40625 L 36.246094 34.363281 L 37.007812 34.363281 C 37.074219 34.363281 37.109375 34.40625 37.109375 34.464844 L 37.109375 34.601562 C 37.109375 34.660156 37.074219 34.703125 37.007812 34.703125 L 35.0625 34.703125 C 35.003906 34.703125 34.960938 34.660156 34.960938 34.601562 Z M 35.722656 31.65625 L 35.722656 31.425781 C 35.722656 31.308594 35.789062 31.242188 35.910156 31.242188 L 36.050781 31.242188 C 36.171875 31.242188 36.238281 31.308594 36.238281 31.425781 L 36.238281 31.65625 C 36.238281 31.773438 36.171875 31.839844 36.050781 31.839844 L 35.910156 31.839844 C 35.789062 31.839844 35.722656 31.773438 35.722656 31.65625 Z M 35.722656 31.65625 " fill-opacity="1" fill-rule="nonzero"/><path fill="#000000" d="M 37.863281 33.773438 L 37.863281 33.183594 C 37.863281 32.558594 38.257812 32.203125 38.960938 32.203125 C 39.664062 32.203125 40.0625 32.558594 40.0625 33.183594 L 40.0625 33.773438 C 40.0625 34.398438 39.664062 34.753906 38.960938 34.753906 C 38.257812 34.753906 37.863281 34.398438 37.863281 33.773438 Z M 39.65625 33.808594 L 39.65625 33.140625 C 39.65625 32.746094 39.410156 32.523438 38.96875 32.523438 C 38.523438 32.523438 38.277344 32.746094 38.277344 33.140625 L 38.277344 33.808594 C 38.277344 34.203125 38.523438 34.425781 38.96875 34.425781 C 39.410156 34.425781 39.65625 34.203125 39.65625 33.808594 Z M 39.65625 33.808594 " fill-opacity="1" fill-rule="nonzero"/><path fill="#000000" d="M 40.882812 34.574219 L 40.882812 32.40625 C 40.882812 32.296875 40.949219 32.222656 41.066406 32.222656 L 41.085938 32.222656 C 41.195312 32.222656 41.261719 32.296875 41.261719 32.40625 L 41.261719 32.53125 C 41.414062 32.320312 41.667969 32.210938 41.996094 32.210938 C 42.597656 32.210938 42.96875 32.566406 42.96875 33.183594 L 42.96875 34.585938 C 42.96875 34.660156 42.917969 34.710938 42.84375 34.710938 L 42.675781 34.710938 C 42.605469 34.710938 42.554688 34.660156 42.554688 34.585938 L 42.554688 33.183594 C 42.554688 32.769531 42.335938 32.550781 41.921875 32.550781 C 41.507812 32.550781 41.289062 32.769531 41.289062 33.183594 L 41.289062 34.585938 C 41.289062 34.660156 41.238281 34.710938 41.167969 34.710938 L 41 34.710938 C 40.933594 34.703125 40.882812 34.652344 40.882812 34.574219 Z M 40.882812 34.574219 " fill-opacity="1" fill-rule="nonzero"/><path fill="#000000" d="M 43.722656 34.050781 L 43.722656 34.003906 C 43.722656 33.527344 44.0625 33.292969 44.730469 33.292969 C 44.941406 33.292969 45.144531 33.316406 45.371094 33.367188 L 45.371094 32.988281 C 45.371094 32.675781 45.1875 32.53125 44.78125 32.53125 C 44.382812 32.53125 44.207031 32.652344 44.207031 32.914062 L 44.207031 32.945312 C 44.207031 32.996094 44.179688 33.023438 44.128906 33.023438 L 43.902344 33.023438 C 43.851562 33.023438 43.816406 32.996094 43.816406 32.9375 L 43.816406 32.914062 C 43.816406 32.449219 44.15625 32.203125 44.773438 32.203125 C 45.441406 32.203125 45.777344 32.472656 45.777344 33.007812 L 45.777344 34.078125 L 46.101562 34.398438 C 46.167969 34.464844 46.167969 34.558594 46.109375 34.617188 L 46.050781 34.675781 C 45.980469 34.746094 45.886719 34.738281 45.828125 34.667969 L 45.515625 34.355469 C 45.355469 34.601562 45.058594 34.753906 44.679688 34.753906 C 44.070312 34.753906 43.722656 34.5 43.722656 34.050781 Z M 44.722656 34.433594 C 45.101562 34.433594 45.363281 34.238281 45.363281 33.960938 L 45.363281 33.648438 C 45.144531 33.589844 44.957031 33.570312 44.753906 33.570312 C 44.339844 33.570312 44.121094 33.714844 44.121094 33.984375 L 44.121094 34.035156 C 44.121094 34.296875 44.332031 34.433594 44.722656 34.433594 Z M 44.722656 34.433594 " fill-opacity="1" fill-rule="nonzero"/><path fill="#000000" d="M 46.726562 34.601562 L 46.726562 34.464844 C 46.726562 34.40625 46.769531 34.363281 46.828125 34.363281 L 47.589844 34.363281 L 47.589844 31.597656 L 46.878906 31.597656 C 46.808594 31.597656 46.777344 31.554688 46.777344 31.496094 L 46.777344 31.359375 C 46.777344 31.300781 46.820312 31.257812 46.878906 31.257812 L 47.851562 31.257812 C 47.953125 31.257812 48.003906 31.300781 48.003906 31.410156 L 48.003906 34.363281 L 48.773438 34.363281 C 48.832031 34.363281 48.875 34.40625 48.875 34.464844 L 48.875 34.601562 C 48.875 34.660156 48.832031 34.703125 48.773438 34.703125 L 46.828125 34.703125 C 46.769531 34.703125 46.726562 34.660156 46.726562 34.601562 Z M 46.726562 34.601562 " fill-opacity="1" fill-rule="nonzero"/><path fill="#000000" d="M 11.363281 39.859375 L 11.363281 39.261719 C 11.363281 38.660156 11.753906 38.289062 12.378906 38.289062 C 12.691406 38.289062 12.9375 38.390625 13.089844 38.570312 L 13.089844 37.460938 C 13.089844 37.363281 13.15625 37.292969 13.257812 37.292969 L 13.328125 37.292969 C 13.4375 37.292969 13.496094 37.371094 13.496094 37.460938 L 13.496094 40.628906 C 13.496094 40.738281 13.425781 40.8125 13.308594 40.8125 L 13.300781 40.8125 C 13.191406 40.8125 13.125 40.738281 13.125 40.628906 L 13.125 40.519531 C 12.972656 40.722656 12.71875 40.832031 12.386719 40.832031 C 11.753906 40.839844 11.363281 40.460938 11.363281 39.859375 Z M 13.089844 39.886719 L 13.089844 39.226562 C 13.089844 38.832031 12.859375 38.609375 12.4375 38.609375 C 12.015625 38.609375 11.785156 38.832031 11.785156 39.226562 L 11.785156 39.886719 C 11.785156 40.289062 12.015625 40.5 12.4375 40.5 C 12.859375 40.5 13.089844 40.289062 13.089844 39.886719 Z M 13.089844 39.886719 " fill-opacity="1" fill-rule="nonzero"/><path fill="#000000" d="M 14.332031 39.910156 L 14.332031 39.21875 C 14.332031 38.609375 14.714844 38.28125 15.421875 38.28125 C 16.132812 38.28125 16.496094 38.59375 16.496094 39.191406 L 16.496094 39.546875 C 16.496094 39.648438 16.445312 39.699219 16.34375 39.699219 L 14.738281 39.699219 L 14.738281 39.945312 C 14.738281 40.332031 14.96875 40.511719 15.441406 40.511719 C 15.863281 40.511719 16.074219 40.382812 16.074219 40.128906 L 16.074219 40.105469 C 16.074219 40.0625 16.09375 40.039062 16.144531 40.039062 L 16.394531 40.039062 C 16.4375 40.039062 16.464844 40.0625 16.464844 40.105469 L 16.464844 40.136719 C 16.464844 40.601562 16.132812 40.839844 15.441406 40.839844 C 14.714844 40.839844 14.332031 40.519531 14.332031 39.910156 Z M 14.738281 39.175781 L 14.738281 39.378906 L 16.101562 39.378906 L 16.101562 39.175781 C 16.101562 38.789062 15.878906 38.601562 15.421875 38.601562 C 14.957031 38.601562 14.738281 38.789062 14.738281 39.175781 Z M 14.738281 39.175781 " fill-opacity="1" fill-rule="nonzero"/><path fill="#000000" d="M 20.246094 40.679688 L 20.246094 40.542969 C 20.246094 40.484375 20.285156 40.441406 20.347656 40.441406 L 21.117188 40.441406 L 21.117188 38.667969 L 20.398438 38.667969 C 20.335938 38.667969 20.296875 38.628906 20.296875 38.570312 L 20.296875 38.433594 C 20.296875 38.375 20.335938 38.332031 20.398438 38.332031 L 21.371094 38.332031 C 21.480469 38.332031 21.53125 38.375 21.53125 38.484375 L 21.53125 40.441406 L 22.292969 40.441406 C 22.359375 40.441406 22.394531 40.484375 22.394531 40.542969 L 22.394531 40.679688 C 22.394531 40.738281 22.359375 40.78125 22.292969 40.78125 L 20.347656 40.78125 C 20.277344 40.78125 20.246094 40.738281 20.246094 40.679688 Z M 20.996094 37.742188 L 20.996094 37.511719 C 20.996094 37.394531 21.066406 37.328125 21.183594 37.328125 L 21.328125 37.328125 C 21.445312 37.328125 21.511719 37.394531 21.511719 37.511719 L 21.511719 37.742188 C 21.511719 37.859375 21.445312 37.925781 21.328125 37.925781 L 21.183594 37.925781 C 21.066406 37.925781 20.996094 37.859375 20.996094 37.742188 Z M 20.996094 37.742188 " fill-opacity="1" fill-rule="nonzero"/><path fill="#000000" d="M 23.136719 39.859375 L 23.136719 39.261719 C 23.136719 38.660156 23.527344 38.289062 24.152344 38.289062 C 24.464844 38.289062 24.710938 38.390625 24.863281 38.570312 L 24.863281 37.460938 C 24.863281 37.363281 24.929688 37.292969 25.03125 37.292969 L 25.097656 37.292969 C 25.210938 37.292969 25.269531 37.371094 25.269531 37.460938 L 25.269531 40.628906 C 25.269531 40.738281 25.199219 40.8125 25.082031 40.8125 L 25.066406 40.8125 C 24.957031 40.8125 24.886719 40.738281 24.886719 40.628906 L 24.886719 40.519531 C 24.734375 40.722656 24.480469 40.832031 24.152344 40.832031 C 23.527344 40.839844 23.136719 40.460938 23.136719 39.859375 Z M 24.863281 39.886719 L 24.863281 39.226562 C 24.863281 38.832031 24.632812 38.609375 24.210938 38.609375 C 23.789062 38.609375 23.558594 38.832031 23.558594 39.226562 L 23.558594 39.886719 C 23.558594 40.289062 23.789062 40.5 24.210938 40.5 C 24.632812 40.5 24.863281 40.289062 24.863281 39.886719 Z M 24.863281 39.886719 " fill-opacity="1" fill-rule="nonzero"/><path fill="#000000" d="M 26.132812 40.679688 L 26.132812 40.542969 C 26.132812 40.484375 26.171875 40.441406 26.234375 40.441406 L 27.003906 40.441406 L 27.003906 38.667969 L 26.285156 38.667969 C 26.222656 38.667969 26.183594 38.628906 26.183594 38.570312 L 26.183594 38.433594 C 26.183594 38.375 26.222656 38.332031 26.285156 38.332031 L 27.257812 38.332031 C 27.367188 38.332031 27.417969 38.375 27.417969 38.484375 L 27.417969 40.441406 L 28.179688 40.441406 C 28.246094 40.441406 28.28125 40.484375 28.28125 40.542969 L 28.28125 40.679688 C 28.28125 40.738281 28.246094 40.78125 28.179688 40.78125 L 26.234375 40.78125 C 26.164062 40.78125 26.132812 40.738281 26.132812 40.679688 Z M 26.882812 37.742188 L 26.882812 37.511719 C 26.882812 37.394531 26.953125 37.328125 27.070312 37.328125 L 27.214844 37.328125 C 27.332031 37.328125 27.398438 37.394531 27.398438 37.511719 L 27.398438 37.742188 C 27.398438 37.859375 27.332031 37.925781 27.214844 37.925781 L 27.070312 37.925781 C 26.960938 37.925781 26.882812 37.859375 26.882812 37.742188 Z M 26.882812 37.742188 " fill-opacity="1" fill-rule="nonzero"/><path fill="#000000" d="M 29.03125 39.859375 L 29.03125 39.269531 C 29.03125 38.644531 29.429688 38.289062 30.132812 38.289062 C 30.832031 38.289062 31.230469 38.644531 31.230469 39.269531 L 31.230469 39.859375 C 31.230469 40.484375 30.832031 40.839844 30.132812 40.839844 C 29.429688 40.839844 29.03125 40.484375 29.03125 39.859375 Z M 30.824219 39.894531 L 30.824219 39.226562 C 30.824219 38.832031 30.578125 38.609375 30.140625 38.609375 C 29.691406 38.609375 29.453125 38.832031 29.453125 39.226562 L 29.453125 39.894531 C 29.453125 40.289062 29.699219 40.511719 30.140625 40.511719 C 30.578125 40.511719 30.824219 40.289062 30.824219 39.894531 Z M 30.824219 39.894531 " fill-opacity="1" fill-rule="nonzero"/><path fill="#000000" d="M 31.839844 40.660156 L 31.839844 38.484375 C 31.839844 38.375 31.90625 38.308594 32.007812 38.308594 L 32.027344 38.308594 C 32.136719 38.308594 32.195312 38.375 32.195312 38.484375 L 32.195312 38.527344 C 32.289062 38.375 32.441406 38.289062 32.644531 38.289062 C 32.878906 38.289062 33.058594 38.390625 33.160156 38.570312 C 33.261719 38.390625 33.429688 38.289062 33.660156 38.289062 C 34.066406 38.289062 34.308594 38.535156 34.308594 38.972656 L 34.308594 40.660156 C 34.308594 40.738281 34.257812 40.789062 34.183594 40.789062 L 34.039062 40.789062 C 33.964844 40.789062 33.914062 40.738281 33.914062 40.660156 L 33.914062 38.972656 C 33.914062 38.738281 33.800781 38.609375 33.589844 38.609375 C 33.378906 38.609375 33.269531 38.738281 33.269531 38.972656 L 33.269531 40.660156 C 33.269531 40.738281 33.21875 40.789062 33.144531 40.789062 L 33.007812 40.789062 C 32.929688 40.789062 32.878906 40.738281 32.878906 40.660156 L 32.878906 38.972656 C 32.878906 38.738281 32.769531 38.609375 32.558594 38.609375 C 32.347656 38.609375 32.238281 38.738281 32.238281 38.972656 L 32.238281 40.660156 C 32.238281 40.738281 32.1875 40.789062 32.109375 40.789062 L 31.957031 40.789062 C 31.890625 40.78125 31.839844 40.730469 31.839844 40.660156 Z M 31.839844 40.660156 " fill-opacity="1" fill-rule="nonzero"/><path fill="#000000" d="M 34.886719 40.128906 L 34.886719 40.078125 C 34.886719 39.605469 35.222656 39.371094 35.890625 39.371094 C 36.101562 39.371094 36.304688 39.394531 36.535156 39.445312 L 36.535156 39.066406 C 36.535156 38.753906 36.347656 38.609375 35.941406 38.609375 C 35.542969 38.609375 35.367188 38.730469 35.367188 38.992188 L 35.367188 39.023438 C 35.367188 39.074219 35.339844 39.101562 35.289062 39.101562 L 35.0625 39.101562 C 35.011719 39.101562 34.976562 39.074219 34.976562 39.015625 L 34.976562 38.992188 C 34.976562 38.527344 35.316406 38.28125 35.933594 38.28125 C 36.601562 38.28125 36.941406 38.550781 36.941406 39.082031 L 36.941406 40.15625 L 37.261719 40.476562 C 37.328125 40.542969 37.328125 40.636719 37.269531 40.695312 L 37.210938 40.753906 C 37.144531 40.824219 37.050781 40.8125 36.992188 40.746094 L 36.679688 40.433594 C 36.515625 40.679688 36.222656 40.832031 35.839844 40.832031 C 35.238281 40.839844 34.886719 40.578125 34.886719 40.128906 Z M 35.882812 40.519531 C 36.261719 40.519531 36.527344 40.324219 36.527344 40.046875 L 36.527344 39.734375 C 36.304688 39.675781 36.121094 39.65625 35.917969 39.65625 C 35.503906 39.65625 35.28125 39.800781 35.28125 40.070312 L 35.28125 40.121094 C 35.289062 40.375 35.492188 40.519531 35.882812 40.519531 Z M 35.882812 40.519531 " fill-opacity="1" fill-rule="nonzero"/><path fill="#000000" d="M 37.9375 40.164062 L 37.9375 40.089844 C 37.9375 40.039062 37.972656 40.011719 38.015625 40.011719 L 38.257812 40.011719 C 38.300781 40.011719 38.328125 40.039062 38.328125 40.078125 L 38.328125 40.15625 C 38.328125 40.398438 38.53125 40.511719 38.976562 40.511719 C 39.394531 40.511719 39.621094 40.375 39.621094 40.128906 L 39.621094 40.078125 C 39.621094 39.867188 39.496094 39.800781 39.242188 39.777344 L 38.65625 39.707031 C 38.148438 39.648438 37.9375 39.488281 37.9375 39.066406 L 37.9375 39.023438 C 37.9375 38.550781 38.292969 38.289062 38.953125 38.289062 C 39.621094 38.289062 39.949219 38.519531 39.949219 38.957031 L 39.949219 39.007812 C 39.949219 39.058594 39.925781 39.082031 39.875 39.082031 L 39.628906 39.082031 C 39.585938 39.082031 39.554688 39.058594 39.554688 39.015625 L 39.554688 38.964844 C 39.554688 38.71875 39.359375 38.609375 38.945312 38.609375 C 38.53125 38.609375 38.308594 38.738281 38.308594 38.992188 L 38.308594 39.042969 C 38.308594 39.242188 38.445312 39.320312 38.691406 39.355469 L 39.273438 39.421875 C 39.78125 39.480469 39.984375 39.640625 39.984375 40.054688 L 39.984375 40.105469 C 39.984375 40.578125 39.613281 40.847656 38.953125 40.847656 C 38.277344 40.839844 37.9375 40.613281 37.9375 40.164062 Z M 37.9375 40.164062 " fill-opacity="1" fill-rule="nonzero"/><path fill="#000000" d="M 24.136719 17.574219 C 23.59375 17.574219 22.882812 18.023438 22.375 18.503906 L 22.375 16.046875 L 21.074219 16.046875 L 21.074219 21.164062 C 21.277344 21.246094 22.089844 21.558594 23.035156 21.558594 C 24.5 21.558594 25.175781 20.816406 25.175781 19.296875 C 25.175781 17.929688 24.617188 17.574219 24.136719 17.574219 Z M 23.011719 20.5625 C 22.789062 20.5625 22.578125 20.503906 22.375 20.410156 L 22.375 19.535156 C 22.714844 19.152344 23.265625 18.773438 23.519531 18.773438 C 23.628906 18.773438 23.890625 18.839844 23.890625 19.476562 C 23.882812 20.191406 23.542969 20.5625 23.011719 20.5625 Z M 23.011719 20.5625 " fill-opacity="1" fill-rule="nonzero"/><path fill="#000000" d="M 16.445312 19.9375 C 16.445312 21.207031 16.835938 21.558594 17.402344 21.558594 C 18.121094 21.558594 18.746094 20.96875 19.253906 20.460938 L 19.253906 21.492188 L 20.558594 21.492188 L 20.558594 17.972656 C 20.355469 17.886719 19.542969 17.574219 18.59375 17.574219 C 17.117188 17.566406 16.445312 18.308594 16.445312 19.9375 Z M 19.253906 18.722656 L 19.253906 19.433594 C 18.925781 19.898438 18.410156 20.371094 18.027344 20.371094 C 17.886719 20.371094 17.75 20.300781 17.75 19.777344 C 17.75 18.953125 18.089844 18.578125 18.628906 18.578125 C 18.832031 18.5625 19.042969 18.628906 19.253906 18.722656 Z M 19.253906 18.722656 " fill-opacity="1" fill-rule="nonzero"/><path fill="#000000" d="M 43.425781 17.332031 L 43.597656 17.332031 C 44.042969 17.332031 44.28125 17.109375 44.28125 16.6875 C 44.28125 16.265625 44.042969 16.046875 43.597656 16.046875 L 43.425781 16.046875 C 42.980469 16.046875 42.742188 16.265625 42.742188 16.6875 C 42.742188 17.101562 42.96875 17.332031 43.425781 17.332031 Z M 43.425781 17.332031 " fill-opacity="1" fill-rule="nonzero"/><path fill="#000000" d="M 14.679688 18.03125 L 12.648438 18.03125 L 12.648438 16.046875 L 11.332031 16.046875 L 11.332031 21.492188 L 12.648438 21.492188 L 12.648438 19.238281 L 14.679688 19.238281 L 14.679688 21.492188 L 16 21.492188 L 16 16.046875 L 14.679688 16.046875 Z M 14.679688 18.03125 " fill-opacity="1" fill-rule="nonzero"/><path fill="#000000" d="M 44.265625 18.5625 C 44.265625 17.945312 43.976562 17.660156 43.300781 17.660156 L 41.914062 17.660156 L 41.914062 18.613281 L 42.675781 18.613281 C 42.886719 18.613281 42.953125 18.699219 42.953125 18.902344 L 42.953125 20.472656 L 41.886719 20.472656 L 41.886719 21.492188 L 45.101562 21.492188 L 45.101562 20.472656 L 44.265625 20.472656 Z M 44.265625 18.5625 " fill-opacity="1" fill-rule="nonzero"/><path fill="#000000" d="M 40.1875 17.617188 C 39.976562 17.582031 39.75 17.566406 39.511719 17.566406 C 38.046875 17.566406 37.371094 18.308594 37.371094 19.929688 C 37.371094 21.195312 37.761719 21.550781 38.328125 21.550781 C 39.046875 21.550781 39.671875 20.960938 40.179688 20.453125 L 40.179688 21.484375 L 41.480469 21.484375 L 41.480469 18.082031 L 41.492188 16.039062 L 40.195312 16.039062 L 40.195312 17.617188 Z M 38.945312 20.359375 C 38.800781 20.359375 38.664062 20.292969 38.664062 19.769531 C 38.664062 18.941406 39.003906 18.570312 39.546875 18.570312 C 39.765625 18.570312 39.976562 18.628906 40.179688 18.722656 L 40.179688 19.433594 C 39.839844 19.886719 39.324219 20.359375 38.945312 20.359375 Z M 38.945312 20.359375 " fill-opacity="1" fill-rule="nonzero"/><path fill="#000000" d="M 47.984375 19.128906 L 46.871094 18.890625 C 46.691406 18.851562 46.589844 18.832031 46.589844 18.730469 C 46.589844 18.578125 46.820312 18.503906 47.105469 18.503906 C 47.496094 18.503906 47.996094 18.640625 48.1875 18.875 L 48.941406 18.257812 C 48.527344 17.820312 47.84375 17.574219 47.148438 17.574219 C 46.226562 17.574219 45.304688 17.996094 45.304688 18.917969 C 45.304688 19.484375 45.652344 19.796875 46.421875 19.957031 L 47.496094 20.183594 C 47.679688 20.226562 47.773438 20.261719 47.773438 20.359375 C 47.773438 20.519531 47.527344 20.597656 47.214844 20.597656 C 46.777344 20.597656 46.191406 20.445312 45.929688 20.167969 L 45.238281 20.910156 C 45.695312 21.332031 46.429688 21.566406 47.199219 21.566406 C 48.121094 21.566406 49.070312 21.238281 49.070312 20.234375 C 49.058594 19.601562 48.703125 19.28125 47.984375 19.128906 Z M 47.984375 19.128906 " fill-opacity="1" fill-rule="nonzero"/><path fill="#000000" d="M 28.179688 19.9375 C 28.179688 21.207031 28.566406 21.558594 29.132812 21.558594 C 29.851562 21.558594 30.476562 20.96875 30.984375 20.460938 L 30.984375 21.492188 L 32.289062 21.492188 L 32.289062 17.972656 C 32.085938 17.886719 31.273438 17.574219 30.328125 17.574219 C 28.847656 17.566406 28.179688 18.308594 28.179688 19.9375 Z M 30.984375 18.722656 L 30.984375 19.433594 C 30.65625 19.898438 30.140625 20.371094 29.757812 20.371094 C 29.617188 20.371094 29.480469 20.300781 29.480469 19.777344 C 29.480469 18.953125 29.820312 18.578125 30.359375 18.578125 C 30.5625 18.5625 30.773438 18.628906 30.984375 18.722656 Z M 30.984375 18.722656 " fill-opacity="1" fill-rule="nonzero"/><path fill="#000000" d="M 35.839844 17.574219 C 35.164062 17.574219 34.582031 18.015625 34.082031 18.496094 L 34.082031 17.652344 L 32.777344 17.660156 L 32.777344 21.484375 L 34.074219 21.484375 L 34.074219 19.40625 C 34.410156 19.042969 34.925781 18.765625 35.214844 18.765625 C 35.402344 18.765625 35.585938 18.882812 35.585938 19.246094 L 35.585938 21.484375 L 36.882812 21.484375 L 36.898438 18.65625 C 36.898438 17.929688 36.441406 17.574219 35.839844 17.574219 Z M 35.839844 17.574219 " fill-opacity="1" fill-rule="nonzero"/><path fill="#000000" d="M 26.875 20.097656 L 26.875 16.046875 L 25.582031 16.046875 L 25.582031 20.582031 C 25.582031 21.207031 25.859375 21.492188 26.539062 21.492188 L 27.949219 21.492188 L 27.949219 20.378906 L 27.15625 20.378906 C 26.941406 20.378906 26.875 20.292969 26.875 20.097656 Z M 26.875 20.097656 " fill-opacity="1" fill-rule="nonzero"/></svg>